<svg width="32" height="32" viewBox="0 0 32 32" xmlns="http://www.w3.org/2000/svg">
  <!-- Black background square -->
  <rect width="32" height="32" fill="black"/>
  
  <!-- White chess pieces -->
  <g fill="white">
    <!-- Chess Knight (left) -->
    <path d="M8 6c0-1.1.9-2 2-2s2 .9 2 2c0 .8-.5 1.5-1.2 1.8L10 8v2h1c.6 0 1 .4 1 1v1h-1v2h1c.6 0 1 .4 1 1v1h-1v2h1c.6 0 1 .4 1 1v1h-1v1H9v-1H8c-.6 0-1-.4-1-1v-1h1v-2H8c-.6 0-1-.4-1-1v-1h1v-2H8c-.6 0-1-.4-1-1V10h1V9c0-.6.4-1 1-1h1V8l-.8-.2C8.5 7.5 8 6.8 8 6z"/>
    
    <!-- Chess King (right) -->
    <path d="M20 6c0-1.1.9-2 2-2s2 .9 2 2c0 .8-.5 1.5-1.2 1.8L22 8v1h1c.6 0 1 .4 1 1v1h-1v2h1c.6 0 1 .4 1 1v1h-1v2h1c.6 0 1 .4 1 1v1h-1v2h1c.6 0 1 .4 1 1v1h-1v1h-2v-1h-1c-.6 0-1-.4-1-1v-1h1v-2h-1c-.6 0-1-.4-1-1v-1h1v-2h-1c-.6 0-1-.4-1-1v-1h1V10h-1c-.6 0-1-.4-1-1V8h1V7l-.8-.2C20.5 6.5 20 5.8 20 6z"/>
  </g>
</svg>
